<svg xmlns="http://www.w3.org/2000/svg" viewBox="0 0 520 450"><defs><linearGradient id="g" x1="0" y1="0" x2="1" y2="1"><stop stop-color="#f8f5ee"/><stop offset="1" stop-color="#dfe8ef"/></linearGradient></defs><rect width="520" height="450" fill="url(#g)"/><path d="M 160 168 C 205 90 318 91 369 161 C 413 223 394 327 320 368 C 246 410 149 363 130 280 C 120 235 133 194 160 168 Z" fill="#f9f2df" opacity=".82"/><g fill="none" stroke="#d6c69f" stroke-width="4"> <path d="M143 314c72-35 168-35 239 0l-20 75H164z" fill="#fff"/><path d="M164 337h198M188 337l12 52M338 337l-12 52"/><ellipse cx="260" cy="292" rx="119" ry="49" fill="#fdfdfc"/></g><g fill="#d6c69f"><ellipse cx="178" cy="274" rx="13" ry="8" transform="rotate(0 178 274)"/><ellipse cx="217" cy="274" rx="15" ry="11" transform="rotate(17 217 274)"/><ellipse cx="256" cy="274" rx="17" ry="8" transform="rotate(34 256 274)"/><ellipse cx="295" cy="274" rx="13" ry="11" transform="rotate(51 295 274)"/><ellipse cx="334" cy="274" rx="15" ry="8" transform="rotate(68 334 274)"/><ellipse cx="178" cy="302" rx="17" ry="11" transform="rotate(85 178 302)"/><ellipse cx="217" cy="302" rx="13" ry="8" transform="rotate(102 217 302)"/><ellipse cx="256" cy="302" rx="15" ry="11" transform="rotate(119 256 302)"/><ellipse cx="295" cy="302" rx="17" ry="8" transform="rotate(136 295 302)"/><ellipse cx="334" cy="302" rx="13" ry="11" transform="rotate(153 334 302)"/></g><text x="28" y="40" font-family="Arial,sans-serif" font-size="12" font-weight="700" letter-spacing="3" fill="#23364d">GIANTZFLY / MAKHANA</text><path d="M29 57h120" stroke="#23364d"/><circle cx="466" cy="39" r="13" fill="none" stroke="#23364d"/><path d="M459 39h14M466 32v14" stroke="#23364d"/></svg>