<svg xmlns="http://www.w3.org/2000/svg" viewBox="0 0 1200 800" fill="none" stroke-linecap="round" stroke-linejoin="round"><circle cx="560" cy="400" r="190" stroke="#8fb6d8" stroke-width="1.6" opacity="0.55" fill="none"/><circle cx="560" cy="400" r="120" stroke="#2f7fc4" stroke-width="2.4" opacity="1.0" fill="none"/><path d="M180 300 L940 300" stroke="#12263f" stroke-width="2.4" opacity="1.0" fill="none"/><path d="M180 280 L180 520 M940 280 L940 520" stroke="#12263f" stroke-width="2.4" opacity="1.0" fill="none"/><path d="M240 300 L240 470 L410 470" stroke="#2f7fc4" stroke-width="2.4" opacity="1.0" fill="none"/><path d="M880 300 L880 470 L710 470" stroke="#2f7fc4" stroke-width="2.4" opacity="1.0" fill="none"/><path d="M410 470 L710 470" stroke="#8fb6d8" stroke-width="1.6" opacity="0.7" fill="none"/><path d="M300 300 L300 350" stroke="#8fb6d8" stroke-width="1.3" opacity="0.55" fill="none"/><path d="M360 300 L360 330" stroke="#8fb6d8" stroke-width="1.3" opacity="0.55" fill="none"/><path d="M420 300 L420 330" stroke="#8fb6d8" stroke-width="1.3" opacity="0.55" fill="none"/><path d="M480 300 L480 330" stroke="#8fb6d8" stroke-width="1.3" opacity="0.55" fill="none"/><path d="M540 300 L540 330" stroke="#8fb6d8" stroke-width="1.3" opacity="0.55" fill="none"/><path d="M600 300 L600 350" stroke="#8fb6d8" stroke-width="1.3" opacity="0.55" fill="none"/><path d="M660 300 L660 330" stroke="#8fb6d8" stroke-width="1.3" opacity="0.55" fill="none"/><path d="M720 300 L720 330" stroke="#8fb6d8" stroke-width="1.3" opacity="0.55" fill="none"/><path d="M780 300 L780 330" stroke="#8fb6d8" stroke-width="1.3" opacity="0.55" fill="none"/><path d="M840 300 L840 330" stroke="#8fb6d8" stroke-width="1.3" opacity="0.55" fill="none"/><path d="M900 300 L900 350" stroke="#8fb6d8" stroke-width="1.3" opacity="0.55" fill="none"/></svg>