<svg xmlns="http://www.w3.org/2000/svg" viewBox="0 0 1200 800" fill="none" stroke-linecap="round" stroke-linejoin="round"><circle cx="600" cy="390" r="250" stroke="#8fb6d8" stroke-width="1.3" opacity="0.55" fill="none"/><circle cx="600" cy="390" r="180" stroke="#8fb6d8" stroke-width="1" opacity="0.38" fill="none"/><path d="M790 390 L850 390" stroke="#8fb6d8" stroke-width="1.6" opacity="0.6" fill="none"/><path d="M809 446 L841 455" stroke="#8fb6d8" stroke-width="1.6" opacity="0.6" fill="none"/><path d="M787 498 L817 515" stroke="#8fb6d8" stroke-width="1.6" opacity="0.6" fill="none"/><path d="M734 524 L777 567" stroke="#8fb6d8" stroke-width="1.6" opacity="0.6" fill="none"/><path d="M708 577 L725 607" stroke="#8fb6d8" stroke-width="1.6" opacity="0.6" fill="none"/><path d="M656 599 L665 631" stroke="#8fb6d8" stroke-width="1.6" opacity="0.6" fill="none"/><path d="M600 580 L600 640" stroke="#8fb6d8" stroke-width="1.6" opacity="0.6" fill="none"/><path d="M544 599 L535 631" stroke="#8fb6d8" stroke-width="1.6" opacity="0.6" fill="none"/><path d="M492 577 L475 607" stroke="#8fb6d8" stroke-width="1.6" opacity="0.6" fill="none"/><path d="M466 524 L423 567" stroke="#8fb6d8" stroke-width="1.6" opacity="0.6" fill="none"/><path d="M413 498 L383 515" stroke="#8fb6d8" stroke-width="1.6" opacity="0.6" fill="none"/><path d="M391 446 L359 455" stroke="#8fb6d8" stroke-width="1.6" opacity="0.6" fill="none"/><path d="M410 390 L350 390" stroke="#8fb6d8" stroke-width="1.6" opacity="0.6" fill="none"/><path d="M391 334 L359 325" stroke="#8fb6d8" stroke-width="1.6" opacity="0.6" fill="none"/><path d="M413 282 L383 265" stroke="#8fb6d8" stroke-width="1.6" opacity="0.6" fill="none"/><path d="M466 256 L423 213" stroke="#8fb6d8" stroke-width="1.6" opacity="0.6" fill="none"/><path d="M492 203 L475 173" stroke="#8fb6d8" stroke-width="1.6" opacity="0.6" fill="none"/><path d="M544 181 L535 149" stroke="#8fb6d8" stroke-width="1.6" opacity="0.6" fill="none"/><path d="M600 200 L600 140" stroke="#8fb6d8" stroke-width="1.6" opacity="0.6" fill="none"/><path d="M656 181 L665 149" stroke="#8fb6d8" stroke-width="1.6" opacity="0.6" fill="none"/><path d="M708 203 L725 173" stroke="#8fb6d8" stroke-width="1.6" opacity="0.6" fill="none"/><path d="M734 256 L777 213" stroke="#8fb6d8" stroke-width="1.6" opacity="0.6" fill="none"/><path d="M787 282 L817 265" stroke="#8fb6d8" stroke-width="1.6" opacity="0.6" fill="none"/><path d="M809 334 L841 325" stroke="#8fb6d8" stroke-width="1.6" opacity="0.6" fill="none"/><path d="M600 190 L648 390 L600 590 L552 390 Z" stroke="#2f7fc4" stroke-width="3" opacity="1.0" fill="none"/><path d="M400 390 L600 342 L800 390 L600 438 Z" stroke="#12263f" stroke-width="2" opacity="0.6" fill="none"/></svg>