<svg xmlns="http://www.w3.org/2000/svg" viewBox="0 0 1200 800" fill="none" stroke-linecap="round" stroke-linejoin="round"><rect x="120" y="240" width="960" height="400" rx="0" stroke="#12263f" stroke-width="3" opacity="1.0" fill="none"/><path d="M120 300 L1080 300" stroke="#8fb6d8" stroke-width="1.4" opacity="0.5" fill="none"/><path d="M120 580 L1080 580" stroke="#8fb6d8" stroke-width="1.4" opacity="0.5" fill="none"/><rect x="160" y="320" width="96" height="74" rx="0" stroke="#2f7fc4" stroke-width="1.8" opacity="0.75" fill="none"/><rect x="275" y="320" width="96" height="74" rx="0" stroke="#2f7fc4" stroke-width="1.8" opacity="0.75" fill="none"/><rect x="390" y="320" width="96" height="74" rx="0" stroke="#2f7fc4" stroke-width="1.8" opacity="0.75" fill="none"/><rect x="505" y="320" width="96" height="74" rx="0" stroke="#2f7fc4" stroke-width="1.8" opacity="0.75" fill="none"/><rect x="620" y="320" width="96" height="74" rx="0" stroke="#2f7fc4" stroke-width="1.8" opacity="0.75" fill="none"/><rect x="735" y="320" width="96" height="74" rx="0" stroke="#2f7fc4" stroke-width="1.8" opacity="0.75" fill="none"/><rect x="850" y="320" width="96" height="74" rx="0" stroke="#2f7fc4" stroke-width="1.8" opacity="0.75" fill="none"/><rect x="965" y="320" width="96" height="74" rx="0" stroke="#2f7fc4" stroke-width="1.8" opacity="0.75" fill="none"/><rect x="160" y="408" width="96" height="74" rx="0" stroke="#2f7fc4" stroke-width="1.8" opacity="0.5700000000000001" fill="none"/><rect x="275" y="408" width="96" height="74" rx="0" stroke="#2f7fc4" stroke-width="1.8" opacity="0.5700000000000001" fill="none"/><rect x="390" y="408" width="96" height="74" rx="0" stroke="#2f7fc4" stroke-width="1.8" opacity="0.5700000000000001" fill="none"/><rect x="505" y="408" width="96" height="74" rx="0" stroke="#2f7fc4" stroke-width="1.8" opacity="0.5700000000000001" fill="none"/><rect x="620" y="408" width="96" height="74" rx="0" stroke="#2f7fc4" stroke-width="1.8" opacity="0.5700000000000001" fill="none"/><rect x="735" y="408" width="96" height="74" rx="0" stroke="#2f7fc4" stroke-width="1.8" opacity="0.5700000000000001" fill="none"/><rect x="850" y="408" width="96" height="74" rx="0" stroke="#2f7fc4" stroke-width="1.8" opacity="0.5700000000000001" fill="none"/><rect x="965" y="408" width="96" height="74" rx="0" stroke="#2f7fc4" stroke-width="1.8" opacity="0.5700000000000001" fill="none"/><rect x="160" y="496" width="96" height="74" rx="0" stroke="#2f7fc4" stroke-width="1.8" opacity="0.39" fill="none"/><rect x="275" y="496" width="96" height="74" rx="0" stroke="#2f7fc4" stroke-width="1.8" opacity="0.39" fill="none"/><rect x="390" y="496" width="96" height="74" rx="0" stroke="#2f7fc4" stroke-width="1.8" opacity="0.39" fill="none"/><rect x="505" y="496" width="96" height="74" rx="0" stroke="#2f7fc4" stroke-width="1.8" opacity="0.39" fill="none"/><rect x="620" y="496" width="96" height="74" rx="0" stroke="#2f7fc4" stroke-width="1.8" opacity="0.39" fill="none"/><rect x="735" y="496" width="96" height="74" rx="0" stroke="#2f7fc4" stroke-width="1.8" opacity="0.39" fill="none"/><rect x="850" y="496" width="96" height="74" rx="0" stroke="#2f7fc4" stroke-width="1.8" opacity="0.39" fill="none"/><rect x="965" y="496" width="96" height="74" rx="0" stroke="#2f7fc4" stroke-width="1.8" opacity="0.39" fill="none"/><path d="M120 690 L1080 690" stroke="#8fb6d8" stroke-width="1.6" opacity="0.7" fill="none"/><path d="M120 678 L120 702 M1080 678 L1080 702" stroke="#8fb6d8" stroke-width="1.6" opacity="0.7" fill="none"/><path d="M1120 240 L1120 640" stroke="#8fb6d8" stroke-width="1.6" opacity="0.7" fill="none"/><path d="M1108 240 L1132 240 M1108 640 L1132 640" stroke="#8fb6d8" stroke-width="1.6" opacity="0.7" fill="none"/></svg>