<svg xmlns="http://www.w3.org/2000/svg" viewBox="0 0 1200 800" fill="none" stroke-linecap="round" stroke-linejoin="round"><path d="M40 700 C 300 700, 380 470, 620 430 C 860 390, 940 250, 1160 220" stroke="#2f7fc4" stroke-width="3.2" opacity="1.0" fill="none"/><path d="M40 745 C 300 745, 380 520, 620 480 C 860 440, 940 300, 1160 272" stroke="#8fb6d8" stroke-width="1.4" opacity="0.6" fill="none"/><path d="M40 700 L40 630" stroke="#12263f" stroke-width="2" opacity="0.55" fill="none"/><circle cx="40" cy="630" r="11" stroke="#2f7fc4" stroke-width="3" opacity="1" fill="#fff"/><path d="M330 616 L330 546" stroke="#12263f" stroke-width="2" opacity="0.55" fill="none"/><circle cx="330" cy="546" r="11" stroke="#2f7fc4" stroke-width="3" opacity="1" fill="#fff"/><path d="M620 430 L620 360" stroke="#12263f" stroke-width="2" opacity="0.55" fill="none"/><circle cx="620" cy="360" r="11" stroke="#2f7fc4" stroke-width="3" opacity="1" fill="#fff"/><path d="M900 330 L900 260" stroke="#12263f" stroke-width="2" opacity="0.55" fill="none"/><circle cx="900" cy="260" r="11" stroke="#2f7fc4" stroke-width="3" opacity="1" fill="#fff"/><path d="M1160 220 L1160 150" stroke="#12263f" stroke-width="2" opacity="0.55" fill="none"/><circle cx="1160" cy="150" r="11" stroke="#2f7fc4" stroke-width="3" opacity="1" fill="#fff"/></svg>