<svg xmlns="http://www.w3.org/2000/svg" viewBox="0 0 1200 800" fill="none" stroke-linecap="round" stroke-linejoin="round"><path d="M140 300 L1060 300" stroke="#12263f" stroke-width="3" opacity="0.85" fill="none"/><rect x="170" y="200" width="78" height="100" rx="0" stroke="#8fb6d8" stroke-width="2" opacity="0.85" fill="none"/><path d="M182 226 L236 226" stroke="#8fb6d8" stroke-width="3" opacity="0.45" fill="none"/><rect x="282" y="216" width="78" height="84" rx="0" stroke="#2f7fc4" stroke-width="2" opacity="0.85" fill="none"/><path d="M294 242 L348 242" stroke="#8fb6d8" stroke-width="3" opacity="0.45" fill="none"/><rect x="394" y="232" width="78" height="68" rx="0" stroke="#2f7fc4" stroke-width="2" opacity="0.85" fill="none"/><path d="M406 258 L460 258" stroke="#8fb6d8" stroke-width="3" opacity="0.45" fill="none"/><rect x="506" y="200" width="78" height="100" rx="0" stroke="#8fb6d8" stroke-width="2" opacity="0.85" fill="none"/><path d="M518 226 L572 226" stroke="#8fb6d8" stroke-width="3" opacity="0.45" fill="none"/><rect x="618" y="216" width="78" height="84" rx="0" stroke="#2f7fc4" stroke-width="2" opacity="0.85" fill="none"/><path d="M630 242 L684 242" stroke="#8fb6d8" stroke-width="3" opacity="0.45" fill="none"/><rect x="730" y="232" width="78" height="68" rx="0" stroke="#2f7fc4" stroke-width="2" opacity="0.85" fill="none"/><path d="M742 258 L796 258" stroke="#8fb6d8" stroke-width="3" opacity="0.45" fill="none"/><rect x="842" y="200" width="78" height="100" rx="0" stroke="#8fb6d8" stroke-width="2" opacity="0.85" fill="none"/><path d="M854 226 L908 226" stroke="#8fb6d8" stroke-width="3" opacity="0.45" fill="none"/><rect x="954" y="216" width="78" height="84" rx="0" stroke="#2f7fc4" stroke-width="2" opacity="0.85" fill="none"/><path d="M966 242 L1020 242" stroke="#8fb6d8" stroke-width="3" opacity="0.45" fill="none"/><path d="M140 460 L1060 460" stroke="#12263f" stroke-width="3" opacity="0.85" fill="none"/><rect x="170" y="360" width="78" height="100" rx="0" stroke="#2f7fc4" stroke-width="2" opacity="0.69" fill="none"/><path d="M182 386 L236 386" stroke="#8fb6d8" stroke-width="3" opacity="0.45" fill="none"/><rect x="282" y="376" width="78" height="84" rx="0" stroke="#2f7fc4" stroke-width="2" opacity="0.69" fill="none"/><path d="M294 402 L348 402" stroke="#8fb6d8" stroke-width="3" opacity="0.45" fill="none"/><rect x="394" y="392" width="78" height="68" rx="0" stroke="#8fb6d8" stroke-width="2" opacity="0.69" fill="none"/><path d="M406 418 L460 418" stroke="#8fb6d8" stroke-width="3" opacity="0.45" fill="none"/><rect x="506" y="360" width="78" height="100" rx="0" stroke="#2f7fc4" stroke-width="2" opacity="0.69" fill="none"/><path d="M518 386 L572 386" stroke="#8fb6d8" stroke-width="3" opacity="0.45" fill="none"/><rect x="618" y="376" width="78" height="84" rx="0" stroke="#2f7fc4" stroke-width="2" opacity="0.69" fill="none"/><path d="M630 402 L684 402" stroke="#8fb6d8" stroke-width="3" opacity="0.45" fill="none"/><rect x="730" y="392" width="78" height="68" rx="0" stroke="#8fb6d8" stroke-width="2" opacity="0.69" fill="none"/><path d="M742 418 L796 418" stroke="#8fb6d8" stroke-width="3" opacity="0.45" fill="none"/><rect x="842" y="360" width="78" height="100" rx="0" stroke="#2f7fc4" stroke-width="2" opacity="0.69" fill="none"/><path d="M854 386 L908 386" stroke="#8fb6d8" stroke-width="3" opacity="0.45" fill="none"/><rect x="954" y="376" width="78" height="84" rx="0" stroke="#2f7fc4" stroke-width="2" opacity="0.69" fill="none"/><path d="M966 402 L1020 402" stroke="#8fb6d8" stroke-width="3" opacity="0.45" fill="none"/><path d="M140 620 L1060 620" stroke="#12263f" stroke-width="3" opacity="0.85" fill="none"/><rect x="170" y="520" width="78" height="100" rx="0" stroke="#2f7fc4" stroke-width="2" opacity="0.53" fill="none"/><path d="M182 546 L236 546" stroke="#8fb6d8" stroke-width="3" opacity="0.45" fill="none"/><rect x="282" y="536" width="78" height="84" rx="0" stroke="#8fb6d8" stroke-width="2" opacity="0.53" fill="none"/><path d="M294 562 L348 562" stroke="#8fb6d8" stroke-width="3" opacity="0.45" fill="none"/><rect x="394" y="552" width="78" height="68" rx="0" stroke="#2f7fc4" stroke-width="2" opacity="0.53" fill="none"/><path d="M406 578 L460 578" stroke="#8fb6d8" stroke-width="3" opacity="0.45" fill="none"/><rect x="506" y="520" width="78" height="100" rx="0" stroke="#2f7fc4" stroke-width="2" opacity="0.53" fill="none"/><path d="M518 546 L572 546" stroke="#8fb6d8" stroke-width="3" opacity="0.45" fill="none"/><rect x="618" y="536" width="78" height="84" rx="0" stroke="#8fb6d8" stroke-width="2" opacity="0.53" fill="none"/><path d="M630 562 L684 562" stroke="#8fb6d8" stroke-width="3" opacity="0.45" fill="none"/><rect x="730" y="552" width="78" height="68" rx="0" stroke="#2f7fc4" stroke-width="2" opacity="0.53" fill="none"/><path d="M742 578 L796 578" stroke="#8fb6d8" stroke-width="3" opacity="0.45" fill="none"/><rect x="842" y="520" width="78" height="100" rx="0" stroke="#2f7fc4" stroke-width="2" opacity="0.53" fill="none"/><path d="M854 546 L908 546" stroke="#8fb6d8" stroke-width="3" opacity="0.45" fill="none"/><rect x="954" y="536" width="78" height="84" rx="0" stroke="#8fb6d8" stroke-width="2" opacity="0.53" fill="none"/><path d="M966 562 L1020 562" stroke="#8fb6d8" stroke-width="3" opacity="0.45" fill="none"/><path d="M140 780 L1060 780" stroke="#8fb6d8" stroke-width="1.6" opacity="0.4" fill="none"/></svg>